<svg width="600" height="600" viewBox="0 0 600 600" xmlns="http://www.w3.org/2000/svg"><rect width="600" height="600" fill="transparent"/><circle cx="490" cy="540" r="15" fill="transparent" stroke="#111111" stroke-width="4"/><rect x="60" y="280" width="100" height="80" fill="#DDDDDD" opacity="0.16216422064769062"/><line x1="400" y1="440" x2="500" y2="480" stroke="#A31D1D" stroke-width="4"/><circle cx="250" cy="300" r="25" fill="transparent" stroke="#A31D1D" stroke-width="4"/><rect x="400" y="80" width="100" height="40" fill="#111111" opacity="0.37039843111192694"/><line x1="300" y1="500" x2="320" y2="580" stroke="#444444" stroke-width="4"/><rect x="520" y="120" width="40" height="20" fill="#444444" opacity="0.3553503511279059"/><line x1="40" y1="180" x2="120" y2="240" stroke="#111111" stroke-width="4"/><circle cx="150" cy="540" r="5" fill="transparent" stroke="#444444" stroke-width="4"/><rect x="280" y="220" width="100" height="100" fill="#444444" opacity="0.5038849739194428"/><line x1="260" y1="140" x2="340" y2="240" stroke="#444444" stroke-width="4"/><circle cx="400" cy="140" r="10" fill="transparent" stroke="#444444" stroke-width="4"/><rect x="220" y="380" width="80" height="40" fill="#A31D1D" opacity="0.5188948185942694"/><line x1="280" y1="140" x2="380" y2="160" stroke="#444444" stroke-width="4"/><line x1="0" y1="320" x2="100" y2="340" stroke="#DDDDDD" stroke-width="4"/><line x1="160" y1="240" x2="180" y2="340" stroke="#111111" stroke-width="4"/><line x1="360" y1="160" x2="440" y2="240" stroke="#A31D1D" stroke-width="4"/><circle cx="420" cy="270" r="10" fill="transparent" stroke="#111111" stroke-width="4"/><circle cx="140" cy="490" r="20" fill="transparent" stroke="#A31D1D" stroke-width="4"/><circle cx="320" cy="320" r="10" fill="transparent" stroke="#DDDDDD" stroke-width="4"/><text x="50%" y="50%" dominant-baseline="middle" text-anchor="middle" font-family="monospace" font-size="24" font-weight="bold" fill="#111111" transform="translate(0, 100)">CLOUD INFRASTRUCTURE</text></svg>